<svg id="Layer_1" data-name="Layer 1" xmlns="http://www.w3.org/2000/svg" xmlns:xlink="http://www.w3.org/1999/xlink" viewBox="0 0 156.3 51.4" width="156px"><defs><linearGradient id="linear-gradient" x1="28.94" y1="27.81" x2="20.9" y2="5.72" gradientUnits="userSpaceOnUse"><stop offset="0" stop-color="#1eaecc"/><stop offset="0.39" stop-color="#20accb"/><stop offset="0.59" stop-color="#25a4c6"/><stop offset="0.74" stop-color="#2f97bd"/><stop offset="0.88" stop-color="#3d84b1"/><stop offset="0.94" stop-color="#4578aa"/></linearGradient><linearGradient id="linear-gradient-2" x1="30.13" y1="28.12" x2="38.26" y2="50.44" gradientUnits="userSpaceOnUse"><stop offset="0" stop-color="#8bc53f"/><stop offset="0.38" stop-color="#93c83f"/><stop offset="0.63" stop-color="#80bb41"/><stop offset="1" stop-color="#5ea444"/></linearGradient></defs><title>logo_keralty</title><path d="M60.7,38.7v10H56.5V25.9h4.2V38.7Zm2.1-2.8,6.5-10h4.9s-5.9,8.5-6.5,9.7-.5,1.3-.1,2.1,7.1,11,7.1,11H69.5L62.9,38.6a2.8,2.8,0,0,1-.1-2.7" transform="translate(-5.7 -2.3)" fill="#002f87"/><path d="M75.1,39.2q0-4.4,1.9-6.8t5.9-2.4a8.8,8.8,0,0,1,3.1.5,5.9,5.9,0,0,1,2.3,1.6,7.1,7.1,0,0,1,1.5,2.7,12.2,12.2,0,0,1,.5,3.8c0,.3,0,.6,0,.9a8.6,8.6,0,0,1-.1.9H79.1a5.5,5.5,0,0,0,1.4,3.9,5.7,5.7,0,0,0,3.9,1.1,12.4,12.4,0,0,0,4.9-1l.5,3.2a11.4,11.4,0,0,1-2.6.9,14.1,14.1,0,0,1-3.2.3q-4.6,0-6.7-2.5t-2.1-7.4M79,37.8h7.8a4.9,4.9,0,0,0-1.1-3.4,3.7,3.7,0,0,0-2.7-1,3.6,3.6,0,0,0-2.9,1,5.7,5.7,0,0,0-1,3.4" transform="translate(-5.7 -2.3)" fill="#002f87"/><path d="M93.4,48.7V30.5l3.1-.2.3,3.4h.1a6.5,6.5,0,0,1,2.2-2.7,5.3,5.3,0,0,1,3.1-.9l1.9.2-.2,3.9-.9-.2h-1a4.5,4.5,0,0,0-1.9.4,4.3,4.3,0,0,0-1.5,1.1,5.1,5.1,0,0,0-1,1.7,6.9,6.9,0,0,0-.4,2.3v9.2Z" transform="translate(-5.7 -2.3)" fill="#002f87"/><polygon points="119.4 46.4 119.4 23.4 123.3 23.4 123.3 46.4 119.4 46.4" fill="#002f87"/><path d="M134,25.9h3.8v4.6h4.3v3h-4.3V43.6a2.2,2.2,0,0,0,.6,1.7,2.7,2.7,0,0,0,1.8.5h1.5l.3,2.9-1.2.3h-1.6a5,5,0,0,1-3.9-1.4,5.6,5.6,0,0,1-1.3-4Z" transform="translate(-5.7 -2.3)" fill="#002f87"/><path d="M144.2,30.4h4.4l4.1,12.1.8,2.3h.1l.6-2.4,3.6-12.1H162l-6.5,18.4a8.2,8.2,0,0,1-2.5,3.8,6,6,0,0,1-3.7,1.1h-1.6l-1.4-.4.3-2.9,1,.3h1a3.4,3.4,0,0,0,1.7-.4,3.3,3.3,0,0,0,1.3-1.6v-.3Z" transform="translate(-5.7 -2.3)" fill="#002f87"/><path d="M119.9,34a4.8,4.8,0,0,0-3.4-3.5,10.8,10.8,0,0,0-3.3-.4,15.1,15.1,0,0,0-6.1,1.2l.3,3.2,2.4-.8,2.7-.2a4.6,4.6,0,0,1,2.9.7,3.1,3.1,0,0,1,.9,2.5v6.7a1.7,1.7,0,0,1-.3.9,2.9,2.9,0,0,1-.8.8l-1.2.6-1.4.2a3.6,3.6,0,0,1-2.2-.6,2.6,2.6,0,0,1-.9-2.3,2.6,2.6,0,0,1,.9-2.1,4.2,4.2,0,0,1,2.7-.7l1.7.2h.2V37.7h-.5l-2-.2a7.1,7.1,0,0,0-4.9,1.5,5.3,5.3,0,0,0-1.7,4.1,5.3,5.3,0,0,0,5.7,6,7.2,7.2,0,0,0,3-.6,5.7,5.7,0,0,0,2.2-1.7h.1l.4,2h3V37.2a12,12,0,0,0-.4-3.2" transform="translate(-5.7 -2.3)" fill="#002f87"/><path d="M11.3,32.9h0Z" transform="translate(-5.7 -2.3)" fill="none"/><path d="M37.5,9c-.4-4.3-2.8-6.7-6-6.7a9.8,9.8,0,0,0-4.9,1.6,22.9,22.9,0,0,0-8.4,9.3c-1,1.9-1.6,3.2-2.6,5.4l.8,1.1c1.2,1.6,5.8,9.8,5.8,9.8l-7.5,2.3,14.9-4.3a3.6,3.6,0,0,0,1.7-.9C35.4,21.5,38.2,15.8,37.5,9Z" transform="translate(-5.7 -2.3)" fill="url(#linear-gradient)"/><path d="M16.4,19.8l-.8-1.1-.2.4c-.5,1-5,13.9-5,13.9h.9l3.4-1,7.5-2.3S17.5,21.5,16.4,19.8Z" transform="translate(-5.7 -2.3)" fill="#007bc1"/><path d="M11.7,32.8l3-.9-3.4,1Z" transform="translate(-5.7 -2.3)" fill="#007bc1"/><path d="M15.4,19l.2-.4a45.8,45.8,0,0,0-4.7-6.2C9,10.7,6.6,10.8,5.8,14.7a6.8,6.8,0,0,0-.1,1.1c-.2,5.8,1,10.3,3.2,16.2a1.9,1.9,0,0,0,2.3,1h-.8S15,20.1,15.4,19Z" transform="translate(-5.7 -2.3)" fill="#4192cf"/><path d="M46.6,39.3c-2.9-5.8-8.1-8.9-14-11H32l-1.3.2-8.3,2.4s.3,8.3.3,9.6,0,.9,0,1.6c2.1,1.4,4.4,2.7,6.2,3.7A21.9,21.9,0,0,0,40.5,49C46.6,48.8,49.3,44.7,46.6,39.3Z" transform="translate(-5.7 -2.3)" fill="url(#linear-gradient-2)"/><path d="M22.8,40.5c0-1.3-.3-9.6-.3-9.6L18.6,32l-6.3,1.8-1.3.7,11.3,7.4.4.2C22.8,41.4,22.8,40.9,22.8,40.5Z" transform="translate(-5.7 -2.3)" fill="#00a771"/><path d="M11.1,34.5l1.3-.7c2.1-.6-.4.1-.4.1s-1.7,1-1.4,2.2c1.5,4.6,3,9.1,6.3,13.1l.7.7c2.7,2.3,4.4,2.3,5.1-1.2a45.7,45.7,0,0,0,.3-6.6l-.4-.2Z" transform="translate(-5.7 -2.3)" fill="#52bd98"/></svg>